<svg width="314" height="128" viewBox="0 0 314 128" fill="none" xmlns="http://www.w3.org/2000/svg">
<path d="M77.656 30.192C78.744 30.192 79.832 30.2827 80.92 30.464C82.0987 30.6453 83.1413 30.9627 84.048 31.416C85.0453 31.8693 85.8613 32.504 86.496 33.32C87.1307 34.136 87.448 35.224 87.448 36.584C87.448 37.8533 87.0853 38.896 86.36 39.712C85.7253 40.528 84.9093 41.1627 83.912 41.616C82.9147 42.0693 81.8267 42.3867 80.648 42.568C79.4693 42.7493 78.4267 42.84 77.52 42.84H27.2V30.192H77.656ZM77.52 50.32C79.696 50.32 81.8267 50.0933 83.912 49.64C86.088 49.096 87.992 48.28 89.624 47.192C91.256 46.104 92.5707 44.6987 93.568 42.976C94.5653 41.1627 95.064 39.032 95.064 36.584C95.064 34.0453 94.5653 31.9147 93.568 30.192C92.6613 28.3787 91.392 26.928 89.76 25.84C88.2187 24.6613 86.36 23.8453 84.184 23.392C82.0987 22.848 79.9227 22.576 77.656 22.576H19.584V50.32H77.52ZM19.584 94.52H11.288V14.28H77.656C81.3733 14.28 84.8187 14.7333 87.992 15.64C91.1653 16.456 93.8853 17.7707 96.152 19.584C98.5093 21.3067 100.323 23.6187 101.592 26.52C102.952 29.3307 103.632 32.6853 103.632 36.584C103.632 41.5707 102.453 45.696 100.096 48.96C97.8293 52.1333 94.4293 54.6267 89.896 56.44V56.576C87.8107 57.3013 84.9093 57.8453 81.192 58.208C77.4747 58.5707 73.304 58.8427 68.68 59.024C64.1467 59.1147 59.3867 59.16 54.4 59.16C49.4133 59.16 44.6533 59.1147 40.12 59.024C35.5867 58.8427 31.5067 58.7067 27.88 58.616C24.2533 58.5253 21.488 58.48 19.584 58.48V94.52ZM111.248 36.584C111.248 31.416 110.432 26.9733 108.8 23.256C107.168 19.448 104.856 16.32 101.864 13.872C98.9627 11.424 95.4267 9.61066 91.256 8.432C87.176 7.25333 82.6427 6.664 77.656 6.664H3.672V102.136H27.2V65.96C29.376 65.96 32.1867 66.0053 35.632 66.096C39.168 66.1867 42.976 66.3227 47.056 66.504C51.136 66.5947 55.3973 66.64 59.84 66.64C64.2827 66.64 68.544 66.5493 72.624 66.368C76.7947 66.1867 80.648 65.8693 84.184 65.416C87.72 64.9627 90.6667 64.328 93.024 63.512V63.376C99.008 60.8373 103.541 57.392 106.624 53.04C109.707 48.688 111.248 43.2027 111.248 36.584ZM0.272 105.536V3.264H77.656C81.192 3.264 84.6373 3.536 87.992 4.08C91.4373 4.53333 94.8827 5.576 98.328 7.208C101.864 8.74933 105.491 10.9707 109.208 13.872C112.925 16.7733 116.824 20.6267 120.904 25.432C123.533 28.0613 125.347 31.552 126.344 35.904C127.341 40.256 127.84 45.016 127.84 50.184C127.84 57.528 126.117 63.6027 122.672 68.408C119.317 73.2133 114.331 77.0667 107.712 79.968C105.899 80.6027 103.723 81.1467 101.184 81.6C98.736 81.9627 96.016 82.28 93.024 82.552C90.032 82.824 86.8587 83.0053 83.504 83.096C80.24 83.1867 76.9307 83.232 73.576 83.232C68.68 83.232 63.8293 83.232 59.024 83.232C54.2187 83.232 49.1413 83.1867 43.792 83.096V118.728H14.28L0.272 105.536Z" fill="white"/>
<path d="M155.424 21.28H163.72V55.824L231.312 21.28H245.184L165.76 61.4C178.907 68.2 191.963 74.9093 204.928 81.528C217.984 88.056 231.085 94.72 244.232 101.52H231.312L163.72 67.112V101.52H155.424V21.28ZM171.336 79.488L229.136 109.136L271.432 109C256.2 101.112 241.104 93.224 226.144 85.336C211.184 77.3573 196.088 69.3787 180.856 61.4L272.656 13.664H229.136C219.525 18.7413 209.915 23.728 200.304 28.624C190.693 33.4293 181.037 38.3253 171.336 43.312V13.664H147.944V109.136H171.336V79.488ZM207.512 71.736L219.48 77.992C223.832 80.2587 228.32 82.616 232.944 85.064C237.659 87.512 242.373 89.96 247.088 92.408C251.803 94.856 256.472 97.304 261.096 99.752C265.811 102.2 270.299 104.512 274.56 106.688L306.384 125.592L241.92 125.728L187.928 97.984V125.728H158.552L144.544 112.536V10.264H174.736L187.928 24.272V30.936C191.011 29.3947 194.003 27.8987 196.904 26.448C199.896 24.9067 202.979 23.32 206.152 21.688C209.325 20.056 212.68 18.3333 216.216 16.52C219.843 14.616 223.832 12.5307 228.184 10.264H274.288L291.424 28.08L207.512 71.736Z" fill="white"/>
</svg>
